<?xml version="1.0" encoding="UTF-8" standalone="no"?>
<!-- Created with Inkscape (http://www.inkscape.org/) -->

<svg
   width="150mm"
   height="150mm"
   viewBox="0 0 149.99811 149.99811"
   version="1.1"
   id="svg5"
   inkscape:version="1.1.2 (b8e25be833, 2022-02-05)"
   sodipodi:docname="logo.svg"
   xmlns:inkscape="http://www.inkscape.org/namespaces/inkscape"
   xmlns:sodipodi="http://sodipodi.sourceforge.net/DTD/sodipodi-0.dtd"
   xmlns="http://www.w3.org/2000/svg"
   xmlns:svg="http://www.w3.org/2000/svg">
  <sodipodi:namedview
     id="namedview7"
     pagecolor="#505050"
     bordercolor="#ffffff"
     borderopacity="1"
     inkscape:pageshadow="0"
     inkscape:pageopacity="0"
     inkscape:pagecheckerboard="1"
     inkscape:document-units="px"
     showgrid="false"
     inkscape:zoom="0.7500982"
     inkscape:cx="373.28446"
     inkscape:cy="318.62495"
     inkscape:window-width="1827"
     inkscape:window-height="1046"
     inkscape:window-x="82"
     inkscape:window-y="-11"
     inkscape:window-maximized="1"
     inkscape:current-layer="layer1" />
  <defs
     id="defs2" />
  <g
     inkscape:label="Layer 1"
     inkscape:groupmode="layer"
     id="layer1">
    <path
       id="path792"
       style="fill:#0000ff;stroke:none;stroke-width:0.26458px;stroke-linecap:butt;stroke-linejoin:miter;stroke-opacity:1"
       d="m 39.906675,29.743083 -2.120256,1.496015 -33.7959611,0.249594 -0.4361435,-0.997861 -2.99306121,0.810795 -0.68573768,2.431861 -0.31212172,2.431863 0.47800097,0.02274 0.39531983,5.838328 6.48479361,0.748267 6.2977278,8.667577 13.717852,1.496015 2.057731,10.475714 0.374132,0.06253 3.419903,-0.330725 0.0093,0.08113 2.021555,-0.278015 2.768788,-0.267681 -1.921822,1.356488 -33.7959605,0.249079 -0.4366604,-0.997343 -2.9930613,0.810277 -0.6857376,2.43186 -0.311605,2.431864 0.4774843,0.02274 0.3953197,5.838328 6.4847937,0.748266 6.2977271,8.667578 13.717853,1.49653 2.057729,10.475199 0.374135,0.06253 3.419902,-0.330725 0.0093,0.08113 2.02259,-0.278016 8.078993,-0.781855 -2.182269,-14.84025 c 0,0 3.553944,-1.49679 4.73867,-5.11332 1.184723,-3.616528 -2.493873,-10.786803 -2.493873,-10.786803 l -2.244797,0.187066 -0.760668,-1.754908 5.063194,-0.489886 -2.182785,-14.84025 c 0,0 3.554463,-1.49679 4.739186,-5.113321 C 46.640858,38.59696 42.961746,31.42617 42.961746,31.42617 l -2.244797,0.187066 z m 0.872805,65.222071 -2.120257,1.496531 -33.7954442,0.249078 -0.4366605,-0.997345 -2.9930612,0.810277 -0.68573765,2.431863 -0.31160486,2.431862 0.47748408,0.0227 0.39531983,5.83884 6.4847936,0.74827 6.2977279,8.66706 13.717853,1.49653 2.057728,10.4752 0.374135,0.0625 3.419903,-0.33073 0.0093,0.0811 2.021558,-0.27801 8.080024,-0.78186 -2.182269,-14.84025 c 0,0 3.553944,-1.49627 4.73867,-5.1128 1.184723,-3.61653 -2.493873,-10.787319 -2.493873,-10.787319 l -2.244797,0.187066 z" />
    <path
       id="path792-4"
       style="fill:#0000ff;stroke:none;stroke-width:0.26458px;stroke-linecap:butt;stroke-linejoin:miter;stroke-opacity:1"
       d="m 108.55034,29.33766 2.12026,1.496015 33.79596,0.249594 0.43614,-0.997861 2.99306,0.810795 0.68574,2.431861 0.31212,2.431863 -0.478,0.02274 -0.39532,5.838328 -6.48479,0.748267 -6.29773,8.667577 -13.71785,1.496015 -2.05773,10.475714 -0.37414,0.06253 -3.4199,-0.330725 -0.009,0.08113 -2.02155,-0.278015 -2.76879,-0.267681 1.92182,1.356488 33.79596,0.249079 0.43666,-0.997343 2.99306,0.810277 0.68574,2.43186 0.31161,2.431864 -0.47749,0.02274 -0.39532,5.838328 -6.48479,0.748266 -6.29773,8.667578 -13.71785,1.49653 -2.05773,10.475198 -0.37414,0.0625 -3.4199,-0.330726 -0.009,0.0811 -2.02259,-0.278014 -8.07899,-0.781855 2.18227,-14.84025 c 0,0 -3.55395,-1.49679 -4.73867,-5.11332 -1.18473,-3.616528 2.49387,-10.786803 2.49387,-10.786803 l 2.2448,0.187066 0.76066,-1.754908 -5.06319,-0.489886 2.18279,-14.84025 c 0,0 -3.55447,-1.49679 -4.73919,-5.113321 -1.18471,-3.616528 2.49439,-10.787318 2.49439,-10.787318 l 2.2448,0.187066 z m -0.87281,65.222071 2.12026,1.496531 33.79545,0.24907 0.43666,-0.997337 2.99306,0.810277 0.68574,2.43186 0.3116,2.431858 -0.47748,0.0227 -0.39532,5.83884 -6.4848,0.74827 -6.29773,8.66706 -13.71785,1.49653 -2.05773,10.4752 -0.37413,0.0625 -3.4199,-0.33073 -0.009,0.0811 -2.02156,-0.27801 -8.08003,-0.78186 2.18227,-14.84025 c 0,0 -3.55394,-1.49627 -4.73866,-5.1128 -1.18472,-3.61653 2.49387,-10.787318 2.49387,-10.787318 l 2.24479,0.18707 z" />
    <path
       style="fill:#ff5555;stroke:none;stroke-width:0.26458px;stroke-linecap:butt;stroke-linejoin:miter;stroke-opacity:1"
       d="m 208.11525,65.739965 -44.26726,-4.76181 -3.88,-8.99455 -2.99818,6.34909 -58.023614,1.23455 -4.40908,-8.28909 -7.76,11.81636 -34.038172,-1.76364 -5.114544,4.23273 1.234545,19.047264 5.290908,-0.17636 0.705454,-8.641813 21.869083,-5.643641 4.938176,2.64545 13.05091,-0.88181 c 0,0 1.76363,5.114544 -4.23273,15.167264 -5.99636,10.05273 8.28909,3.35091 8.28909,3.35091 l 5.643624,-11.81636 14.28545,1.41091 4.23273,18.694535 10.05272,-3.350905 c 0,0 -6.17273,-16.9309 -4.23273,-17.98908 1.94,-1.058183 35.09636,-6.172734 35.09636,-6.172734 z"
       id="path2180" />
    <path
       style="fill:#ff5555;stroke:none;stroke-width:0.26458px;stroke-linecap:butt;stroke-linejoin:miter;stroke-opacity:1"
       d="m -47.6244,65.739965 44.267259,-4.76181 3.88,-8.99455 2.99818,6.34909 58.023614,1.23455 4.40908,-8.28909 7.76,11.81636 34.038177,-1.76364 5.11454,4.23273 -1.23454,19.047264 -5.29091,-0.17636 -0.70546,-8.641813 -21.869081,-5.643641 -4.938176,2.64545 -13.05091,-0.88181 c 0,0 -1.763629,5.114544 4.23273,15.167264 5.99636,10.05273 -8.28909,3.35091 -8.28909,3.35091 l -5.643624,-11.81636 -14.28545,1.41091 -4.232729,18.694535 -10.05272,-3.350905 c 0,0 6.17273,-16.9309 4.23273,-17.98908 -1.94,-1.058183 -35.096361,-6.172734 -35.096361,-6.172734 z"
       id="path2180-1" />
    <circle
       style="fill:#e9afaf;fill-rule:evenodd;stroke-width:0.26458"
       id="path50"
       cx="74.999054"
       cy="74.999054"
       r="29.276354" />
    <circle
       style="fill:#2b1100;fill-rule:evenodd;stroke-width:0.0796928"
       id="path50-3"
       cx="74.999054"
       cy="74.999054"
       r="8.8181791" />
    <circle
       style="fill:#e3dbdb;fill-rule:evenodd;stroke-width:0.0350648"
       id="path50-3-6"
       cx="74.999054"
       cy="74.999054"
       r="3.8799992" />
  </g>
</svg>
